<svg height="511pt" viewBox="0 0 511.99958 511" width="511pt" xmlns="http://www.w3.org/2000/svg"><path d="m372.566406 372.570312-.222656.222657c-3.90625 3.90625-3.90625 10.238281 0 14.144531 1.953125 1.949219 4.511719 2.925781 7.070312 2.925781 2.558594 0 5.117188-.976562 7.070313-2.925781l.300781-.304688c3.882813-3.925781 3.847656-10.257812-.078125-14.140624-3.925781-3.882813-10.257812-3.847657-14.140625.078124zm0 0"/><path d="m489.550781 57.585938c-2.285156-2.410157-5.617187-3.527344-8.894531-2.984376-3.273438.542969-6.066406 2.675782-7.449219 5.691407-6.917969 15.066406-21.25 19.707031-44.0625 26.027343-18.796875 5.207032-40.101562 11.105469-56.113281 28.078126-20.191406 21.402343-27.199219 43.421874-32.828125 61.113281-3.421875 10.753906-6.378906 20.042969-11.472656 27.378906-4.8125 6.925781-11.363281 9.203125-23.488281 12.949219-14.328126 4.425781-32.023438 9.894531-51.652344 28.558594-.007813-.015626-.015625-.027344-.023438-.042969-.410156.410156-.808594.820312-1.207031 1.230469-.414063.402343-.824219.800781-1.238281 1.214843.015625.003907.03125.011719.046875.019531-18.359375 19.304688-25.980469 38.714844-32.148438 54.433594-4.945312 12.605469-8.851562 22.5625-16.578125 27.929688-7.339844 5.09375-16.625 8.050781-27.378906 11.472656-17.691406 5.628906-39.710938 12.636719-61.113281 32.828125-16.972657 16.011719-22.871094 37.316406-28.078125 56.113281-6.320313 22.8125-10.960938 37.144532-26.027344 44.0625-3.015625 1.382813-5.148438 4.175782-5.691406 7.449219-.542969 3.277344.574218 6.609375 2.984375 8.894531 17.785156 16.863282 41.480469 22.449219 64.589843 22.449219 29.984376 0 58.96875-9.410156 72.714844-15.78125 28.738282-13.324219 42.144532-26.015625 55.109375-38.289063 7.359375-6.964843 14.308594-13.546874 24.246094-20.625 6.652344-4.734374 15.855469-6.414062 27.503906-8.539062 14.089844-2.570312 31.621094-5.769531 50.734375-16.113281 4.855469-2.628907 6.664063-8.699219 4.035156-13.554688-2.628906-4.859375-8.699218-6.660156-13.554687-4.035156-16.316406 8.832031-31.449219 11.59375-44.804687 14.027344-12.976563 2.367187-25.234376 4.605469-35.515626 11.925781-11.074218 7.886719-18.863281 15.261719-26.394531 22.390625-12.34375 11.683594-24 22.71875-49.773437 34.667969-17.578125 8.152344-70.5 24.269531-104.65625 4.726562 13.8125-12.375 18.859375-30.585937 23.769531-48.316406 4.730469-17.074219 9.621094-34.726562 22.535156-46.90625 18.085938-17.0625 36.0625-22.785156 53.449219-28.316406 11.78125-3.75 22.910156-7.289063 32.722656-14.105469 12.722656-8.832031 18.097656-22.539063 23.789063-37.046875 5.90625-15.054688 12.589843-32.066406 28.863281-48.832031 16.609375-16.117188 31.484375-20.714844 44.644531-24.78125 12.878907-3.976563 25.042969-7.734375 34.011719-20.648438 6.8125-9.808593 10.355469-20.9375 14.105469-32.722656 5.53125-17.386719 11.253906-35.363281 28.316406-53.449219 12.179687-12.914062 29.832031-17.804687 46.902344-22.53125 17.734375-4.914062 35.945312-9.960937 48.320312-23.769531 19.542969 34.15625 3.425781 87.074219-4.726562 104.652344-11.949219 25.773437-22.984375 37.429687-34.667969 49.773437-7.132812 7.53125-14.503906 15.320313-22.390625 26.394532-7.324219 10.28125-9.558594 22.539062-11.925781 35.519531-2.433594 13.320312-5.1875 28.421875-13.972656 44.691406-2.621094 4.863281-.808594 10.929687 4.050781 13.550781 1.511719.816406 3.136719 1.203125 4.742187 1.203125 3.554688 0 7-1.902343 8.808594-5.25 10.289062-19.066406 13.480469-36.554687 16.046875-50.609375 2.125-11.648437 3.800781-20.851562 8.539063-27.503906 7.078124-9.9375 13.65625-16.886719 20.625-24.246094 12.273437-12.964844 24.964843-26.375 38.289062-55.109375 11.285156-24.34375 32.078125-96.449219-6.667969-137.308593zm0 0"/><path d="m283.242188 293.816406c-3.90625-3.90625-10.238282-3.90625-14.144532 0-19.734375 19.738282-19.734375 51.851563 0 71.589844 1.953125 1.953125 4.511719 2.929688 7.070313 2.929688 2.558593 0 5.117187-.976563 7.070312-2.929688 3.90625-3.902344 3.90625-10.234375 0-14.140625-11.9375-11.941406-11.9375-31.367187 0-43.308594 3.90625-3.90625 3.90625-10.238281.003907-14.140625zm0 0"/><path d="m147.753906 409.792969c-3.90625-3.90625-10.238281-3.90625-14.144531 0-7.351563 7.351562-11.398437 17.121093-11.398437 27.519531 0 10.394531 4.050781 20.167969 11.398437 27.519531 1.953125 1.949219 4.511719 2.925781 7.070313 2.925781 2.558593 0 5.117187-.976562 7.070312-2.925781 3.90625-3.90625 3.90625-10.238281 0-14.144531-7.375-7.375-7.375-19.375 0-26.753906 3.90625-3.90625 3.90625-10.238282.003906-14.140625zm0 0"/><path d="m408.84375 157.09375c-3.90625-3.90625-10.234375-3.90625-14.140625 0-6.636719 6.632812-10.289063 15.453125-10.289063 24.835938 0 9.382812 3.652344 18.203124 10.289063 24.839843 1.953125 1.953125 4.511719 2.925781 7.070313 2.925781 2.558593 0 5.117187-.972656 7.070312-2.925781 3.902344-3.90625 3.902344-10.238281 0-14.144531-2.859375-2.855469-4.429688-6.652344-4.429688-10.695312 0-4.039063 1.570313-7.835938 4.429688-10.695313 3.90625-3.90625 3.90625-10.234375 0-14.140625zm0 0"/><path d="m118.273438 255.351562c0-30.621093-26.527344-55.535156-59.136719-55.535156s-59.136719 24.914063-59.136719 55.535156c0 30.621094 26.527344 55.535157 59.136719 55.535157s59.136719-24.914063 59.136719-55.535157zm-98.273438 0c0-16.457031 12.386719-30.332031 29.136719-34.355468v2.660156c0 5.523438 4.480469 10 10 10 5.523437 0 10-4.476562 10-10v-2.660156c16.753906 4.023437 29.140625 17.898437 29.140625 34.355468 0 19.59375-17.558594 35.535157-39.140625 35.535157-21.578125 0-39.136719-15.941407-39.136719-35.535157zm0 0"/><path d="m205.003906 174.128906c15.269532 0 30.882813-6.066406 42.886719-18.066406 23.058594-23.058594 24.199219-59.433594 2.546875-81.085938-21.652344-21.652343-58.027344-20.511718-81.085938 2.546876-23.058593 23.058593-24.199218 59.433593-2.546874 81.085937 10.382812 10.382813 24.140624 15.519531 38.199218 15.519531zm31.292969-85.011718c13.855469 13.855468 12.710937 37.542968-2.546875 52.804687-15.261719 15.257813-38.949219 16.402344-52.804688 2.546875-11.636718-11.636719-12.6875-30.207031-3.6875-44.898438l1.882813 1.882813c1.949219 1.953125 4.511719 2.925781 7.070313 2.925781 2.558593 0 5.117187-.976562 7.070312-2.925781 3.902344-3.90625 3.902344-10.238281 0-14.144531l-1.878906-1.878906c6.496094-3.980469 13.75-6 20.832031-6 8.925781 0 17.574219 3.199218 24.0625 9.6875zm0 0"/><path d="m53.753906 115.175781c15.265625 0 30.882813-6.066406 42.886719-18.070312 23.058594-23.054688 24.199219-59.429688 2.546875-81.085938-21.652344-21.652343-58.027344-20.507812-81.085938 2.550781-23.058593 23.054688-24.199218 59.429688-2.546874 81.085938 10.382812 10.378906 24.140624 15.519531 38.199218 15.519531zm-21.511718-82.464843c7.492187-7.496094 17.191406-11.832032 27.308593-12.21875.488281-.015626.96875-.027344 1.449219-.027344 9.269531 0 17.761719 3.414062 24.046875 9.699218 11.636719 11.636719 12.6875 30.207032 3.6875 44.894532l-1.882813-1.878906c-3.902343-3.90625-10.234374-3.90625-14.140624 0-3.902344 3.90625-3.902344 10.234374 0 14.140624l1.890624 1.886719c-5.910156 3.636719-12.5625 5.714844-19.410156 5.972657-9.847656.378906-18.886718-3.058594-25.496094-9.667969-13.855468-13.855469-12.710937-37.539063 2.546876-52.800781zm0 0"/></svg>